<svg width="208" height="67" viewBox="0 0 208 67" fill="none" xmlns="http://www.w3.org/2000/svg">
<path d="M59.5179 13L68 19H59.5179L53.0446 16L43 13H46.5714H59.5179Z" fill="#634A1E"/>
<path fill-rule="evenodd" clip-rule="evenodd" d="M42.8569 13.4791L43 12.5H59.6768L69.5727 19.5H59.4076L52.8671 16.4688L42.8569 13.4791ZM46.5335 13.5335L46.4612 13.5H46.4213L46.5335 13.5335ZM48.8394 13.5L59.6281 18.5H66.4273L59.3589 13.5H48.8394Z" fill="black"/>
<path fill-rule="evenodd" clip-rule="evenodd" d="M28.8629 22.3457L28.8617 22.3411L28.8573 22.324C28.8533 22.3085 28.8472 22.2848 28.8393 22.2533C28.8236 22.1903 28.8005 22.0959 28.7719 21.973C28.7147 21.7272 28.6355 21.3673 28.5483 20.9149C28.3738 20.0097 28.168 18.737 28.0431 17.27C27.7922 14.3222 27.8738 10.65 29.1406 7.59578C30.3912 4.58078 32.7985 2.15171 37.2987 1.61197C41.8503 1.06605 48.5839 2.44851 58.4458 7.25267L83.4914 22.1583L52.5724 26.0098L31.9862 51.6561L19.7624 65.6713L20.5161 66.3286L32.7532 52.298L53.0984 26.952L85.0618 22.9705L85.2557 22.0446L58.9213 6.37201L58.9026 6.36288C48.9709 1.52228 42.0202 0.0385093 37.1796 0.619085C32.2846 1.20619 29.5914 3.89912 28.2169 7.21265C26.8588 10.487 26.7909 14.3498 27.0467 17.3549C27.1752 18.8643 27.3868 20.1726 27.5664 21.1042C27.6562 21.5702 27.7382 21.9427 27.7979 22.1996C27.8095 22.2492 27.8202 22.2945 27.83 22.3353L0.630409 52.1866L1.36958 52.8602L28.9331 22.6094L28.8629 22.3457Z" fill="black"/>
<path d="M137.304 32.856H155.088V58.056C152.304 58.968 149.496 59.64 146.664 60.072C143.832 60.504 140.616 60.72 137.016 60.72C131.688 60.72 127.2 59.664 123.552 57.552C119.904 55.392 117.12 52.344 115.2 48.408C113.328 44.424 112.392 39.72 112.392 34.296C112.392 28.92 113.448 24.264 115.56 20.328C117.672 16.392 120.696 13.344 124.632 11.184C128.616 8.97599 133.416 7.87199 139.032 7.87199C141.912 7.87199 144.624 8.13599 147.168 8.66399C149.76 9.19199 152.16 9.93599 154.368 10.896L151.92 16.512C150.096 15.696 148.032 15 145.728 14.424C143.472 13.848 141.12 13.56 138.672 13.56C134.592 13.56 131.088 14.4 128.16 16.08C125.232 17.76 123 20.16 121.464 23.28C119.928 26.352 119.16 30.024 119.16 34.296C119.16 38.376 119.808 42 121.104 45.168C122.448 48.288 124.536 50.736 127.368 52.512C130.2 54.24 133.92 55.104 138.528 55.104C140.064 55.104 141.408 55.056 142.56 54.96C143.76 54.816 144.84 54.648 145.8 54.456C146.808 54.264 147.744 54.072 148.608 53.88V38.616H137.304V32.856Z" fill="#634A1E"/>
<path fill-rule="evenodd" clip-rule="evenodd" d="M136.304 31.856H156.088V58.7807L155.399 59.0063C152.564 59.9351 149.702 60.6201 146.815 61.0606C143.922 61.5018 140.654 61.72 137.016 61.72C131.558 61.72 126.886 60.638 123.051 58.4174L123.042 58.4125C119.22 56.1495 116.304 52.952 114.301 48.8464L114.298 48.8399L114.295 48.8333C112.348 44.689 111.392 39.8336 111.392 34.296C111.392 28.7884 112.474 23.9634 114.679 19.8552C116.882 15.7484 120.045 12.5608 124.149 10.3083C128.312 8.00173 133.286 6.87199 139.032 6.87199C141.972 6.87199 144.752 7.14146 147.37 7.6845C150.023 8.22506 152.489 8.98875 154.767 9.97892L155.685 10.378L152.433 17.8371L151.512 17.4248C149.75 16.6367 147.743 15.9585 145.485 15.3941L145.481 15.3929C143.31 14.8386 141.041 14.56 138.672 14.56C134.73 14.56 131.406 15.3707 128.658 16.9474C125.908 18.5252 123.812 20.7744 122.361 23.7217L122.358 23.7272C120.907 26.6306 120.16 30.1422 120.16 34.296C120.16 38.2668 120.79 41.7557 122.026 44.7808C123.29 47.7117 125.242 49.997 127.894 51.6614C130.519 53.2614 134.038 54.104 138.528 54.104C140.037 54.104 141.346 54.057 142.459 53.9649C143.632 53.8238 144.679 53.6603 145.604 53.4754L145.613 53.4736C146.314 53.34 146.979 53.2067 147.608 53.0736V39.616H136.304V31.856ZM148.608 38.616V53.88C147.744 54.072 146.808 54.264 145.8 54.456C144.84 54.648 143.76 54.816 142.56 54.96C141.408 55.056 140.064 55.104 138.528 55.104C133.92 55.104 130.2 54.24 127.368 52.512C124.536 50.736 122.448 48.288 121.104 45.168C119.808 42 119.16 38.376 119.16 34.296C119.16 30.024 119.928 26.352 121.464 23.28C123 20.16 125.232 17.76 128.16 16.08C131.088 14.4 134.592 13.56 138.672 13.56C141.12 13.56 143.472 13.848 145.728 14.424C147.817 14.9463 149.709 15.5673 151.404 16.287C151.578 16.361 151.75 16.436 151.92 16.512L154.368 10.896C154.064 10.7638 153.756 10.6356 153.445 10.5116C151.495 9.73513 149.403 9.11926 147.168 8.66399C144.624 8.13599 141.912 7.87199 139.032 7.87199C133.416 7.87199 128.616 8.97599 124.632 11.184C120.696 13.344 117.672 16.392 115.56 20.328C113.448 24.264 112.392 28.92 112.392 34.296C112.392 39.72 113.328 44.424 115.2 48.408C117.12 52.344 119.904 55.392 123.552 57.552C127.2 59.664 131.688 60.72 137.016 60.72C140.616 60.72 143.832 60.504 146.664 60.072C149.496 59.64 152.304 58.968 155.088 58.056V32.856H137.304V38.616H148.608Z" fill="black"/>
<path d="M116.456 59H97.88V55.256L103.928 53.888V12.776L97.88 11.336V7.59198H116.456V11.336L110.408 12.776V53.888L116.456 55.256V59Z" fill="#634A1E"/>
<path fill-rule="evenodd" clip-rule="evenodd" d="M117.456 60H96.88V54.4569L102.928 53.0889V13.5658L96.88 12.1258V6.59198H117.456V12.1258L111.408 13.5658V53.0889L117.456 54.4569V60ZM110.408 53.888V12.776L116.456 11.336V7.59198H97.88V11.336L103.928 12.776V53.888L97.88 55.256V59H116.456V55.256L110.408 53.888Z" fill="black"/>
<path d="M199.24 59L193.048 43.088H172.672L166.552 59H160L180.088 7.37599H185.92L205.936 59H199.24ZM185.344 21.776C185.2 21.392 184.96 20.696 184.624 19.688C184.288 18.68 183.952 17.648 183.616 16.592C183.328 15.488 183.088 14.648 182.896 14.072C182.656 15.032 182.392 16.016 182.104 17.024C181.864 17.984 181.6 18.872 181.312 19.688C181.072 20.504 180.856 21.2 180.664 21.776L174.832 37.328H191.104L185.344 21.776Z" fill="#634A1E"/>
<path fill-rule="evenodd" clip-rule="evenodd" d="M198.556 60L192.364 44.088H173.359L167.239 60H158.538L179.404 6.37599H186.605L207.396 60H198.556ZM172.672 43.088H193.048L199.24 59H205.936L185.92 7.37599H180.088L160 59H166.552L172.672 43.088ZM182.407 15.94C182.309 16.2982 182.208 16.6595 182.104 17.024C181.864 17.984 181.6 18.872 181.312 19.688C181.072 20.504 180.856 21.2 180.664 21.776L174.832 37.328H191.104L185.344 21.776C185.2 21.392 184.96 20.696 184.624 19.688C184.288 18.68 183.952 17.648 183.616 16.592C183.556 16.3633 183.499 16.146 183.443 15.94C183.231 15.1514 183.048 14.5287 182.896 14.072C182.743 14.6849 182.58 15.3076 182.407 15.94ZM182.944 17.7721C183.188 18.5286 183.431 19.2726 183.675 20.0042C184.011 21.0099 184.256 21.7216 184.407 22.1254C184.407 22.126 184.407 22.1266 184.408 22.1271L189.667 36.328H176.275L181.607 22.1098L181.613 22.0922C181.808 21.5075 182.025 20.808 182.264 19.9955C182.508 19.3002 182.735 18.5589 182.944 17.7721Z" fill="black"/>
</svg>
